<svg width="205" height="215" viewBox="0 0 205 215" fill="none" xmlns="http://www.w3.org/2000/svg">
<path opacity="0.99" d="M59.4795 2C77.5525 2 91.5332 11.8684 101.403 30.9131C111.228 49.8696 116.052 75.9082 116.052 108.859C116.052 140.277 111.188 165.492 101.298 184.354L101.296 184.358C91.3768 203.188 77.7825 213 60.4883 213C41.9121 213 27.4576 203.17 17.1689 184.117V184.116C6.99352 165.234 2 139.051 2 105.752C2.00004 74.2457 6.99893 49.102 17.1738 30.4854L17.1748 30.4844C27.4517 11.7188 41.5584 2.00014 59.4795 2ZM203 5.625V209.505H156.937V56.6172H140.091V5.625H203ZM58.875 52.6045C57.3711 52.6045 55.9368 53.2834 54.5352 55.0732C53.0874 56.922 51.7673 59.8584 50.6719 64.0547C48.4854 72.4308 47.3574 85.169 47.3574 102.387C47.3574 122.979 48.4602 138.278 50.6172 148.379C51.6991 153.445 53.0135 157.04 54.4746 159.32C55.9164 161.571 57.2999 162.267 58.5723 162.267C60.2218 162.267 61.7476 161.533 63.1982 159.671C64.6993 157.744 66.0419 154.688 67.1211 150.323L67.123 150.313H67.124C69.3468 141.504 70.4922 127.6 70.4922 108.471C70.4922 89.2203 69.3566 74.9418 67.1416 65.5293C66.0311 60.8104 64.6853 57.4803 63.1982 55.374C61.7464 53.3177 60.3051 52.6046 58.875 52.6045Z" stroke="#25E09E" stroke-width="4"/>
</svg>
