<svg width="205" height="215" viewBox="0 0 205 215" fill="none" xmlns="http://www.w3.org/2000/svg">
<path opacity="0.99" d="M50.0879 2C65.4617 2.00015 77.1261 12.1133 85.2754 31.042C93.4179 49.9549 97.4209 75.9409 97.4209 108.859C97.4209 140.24 93.3862 165.404 85.1885 184.225L85.1865 184.228C76.9989 202.938 65.6556 213 50.9258 213C35.1426 213 23.0776 202.935 14.5771 183.985L14.5762 183.984C6.14274 165.145 2 139.017 2 105.752C2.00003 74.2832 6.14752 49.1933 14.5811 30.6182V30.6162C23.0703 11.956 34.8475 2 50.0879 2ZM159.521 2C172.518 2.0001 183.038 8.60133 191.031 21.2959C199.068 33.7114 203 49.7897 203 69.375C203 85.1427 200.306 100.476 194.92 115.365L194.918 115.371C192.2 122.806 188.669 130.613 184.332 138.792C180.619 145.811 176.215 153.143 171.124 160.789C175.002 160.413 178.895 160.129 182.803 159.938H182.804C188.2 159.678 193.707 159.548 199.324 159.548H201.324V209.505H107.056L108.45 206.632L143.812 133.748V133.747C147.823 125.484 151.188 118.138 153.908 111.705C156.628 105.188 158.754 99.4682 160.294 94.54L160.298 94.5283L160.302 94.5156C163.309 85.3097 164.812 75.8532 164.812 66.1387C164.812 60.8463 164.1 56.8512 162.812 54.0215C161.535 51.212 160.106 50.4035 158.684 50.4033C157.181 50.4033 155.584 51.3796 154.29 55.1387C153.004 58.8741 152.304 64.6895 152.304 72.7412V75.792C152.359 77.0026 152.414 78.4229 152.47 80.0518L152.541 82.1201H114.58L114.534 80.166L114.367 72.917L114.366 72.8936V72.8701C114.366 52.5056 118.439 35.6225 126.737 22.3574C135.114 8.96957 146.055 2 159.521 2ZM49.585 52.6045C48.6289 52.6045 47.5356 53.1062 46.3486 54.9307C45.1395 56.7894 44.0338 59.7508 43.1182 63.9736C41.2934 72.3887 40.3564 85.1606 40.3564 102.387C40.3565 122.986 41.2715 138.313 43.0693 148.447C43.9717 153.534 45.0719 157.157 46.2969 159.459C47.5441 161.802 48.6193 162.266 49.333 162.267C50.4121 162.267 51.5815 161.708 52.8076 159.813C54.0616 157.876 55.1866 154.793 56.0889 150.4L56.0908 150.393C57.9455 141.544 58.8975 127.606 58.8975 108.471C58.8975 89.2127 57.9536 74.9029 56.1064 65.4541C55.1794 60.7122 54.0534 57.3549 52.8086 55.2324C51.565 53.112 50.4535 52.6046 49.585 52.6045Z" stroke="#25E09E" stroke-width="4"/>
</svg>
