<svg width="205" height="215" viewBox="0 0 205 215" fill="none" xmlns="http://www.w3.org/2000/svg">
<path opacity="0.99" d="M50.623 2C66.1494 2.00002 77.9464 12.0965 86.1943 31.0342C94.4326 49.9499 98.4834 75.9391 98.4834 108.859C98.4834 140.243 94.4006 165.409 86.1064 184.232L86.1055 184.235C77.8186 202.955 66.3455 213 51.4707 213C35.5297 213 23.3275 202.951 14.7246 183.993L14.7236 183.992C6.19095 165.15 2 139.019 2 105.752C2.00003 74.2813 6.19581 49.1882 14.7285 30.6104V30.6084C23.3202 11.9398 35.2312 2 50.623 2ZM158.53 2C170.942 2 181.171 8.03283 189.155 19.6758C197.294 31.2102 201.305 45.401 201.305 62.126C201.305 79.9914 196.406 94.1013 186.374 104.168C197.552 114.904 203 130.476 203 150.544C203 168.717 198.772 183.712 190.146 195.361C181.603 207.053 170.37 213 156.581 213C143.07 213 132.138 207.178 123.93 195.725V195.724C115.653 184.333 111.604 169.605 111.604 151.709V146.731H150.104V148.731C150.104 154.633 150.823 158.77 152.068 161.361C152.678 162.63 153.377 163.451 154.107 163.958C154.821 164.453 155.677 164.727 156.751 164.727C158.654 164.726 160.431 163.693 162.021 160.735C163.626 157.665 164.499 153.533 164.499 148.214C164.499 141.345 163.315 136.547 161.245 133.516C159.268 130.621 156.329 129.112 152.088 129.112C151.564 129.112 150.837 129.181 149.88 129.344L149.798 129.357L149.714 129.364C148.736 129.447 147.61 129.573 146.333 129.742L144.069 130.043V82.9814L146.249 83.1768C147.164 83.2589 147.963 83.3432 148.645 83.4277H150.308C154.613 83.4277 157.576 81.9564 159.552 79.1855C161.617 76.2903 162.804 71.7009 162.804 65.1035C162.804 59.6692 162.176 55.8718 161.098 53.5039C160.57 52.3446 159.974 51.6188 159.378 51.1826C158.804 50.7626 158.125 50.5332 157.259 50.5332C156.241 50.5333 155.275 51.0142 154.38 52.7734C153.435 54.6319 152.75 57.6411 152.474 61.9941L152.304 64.71L152.188 66.585H114.04L114.148 64.4824C115.121 45.6142 119.449 30.4907 127.31 19.292C135.158 7.85636 145.605 2.00012 158.53 2ZM50.1143 52.6045C49.1255 52.6045 48.0138 53.1195 46.8154 54.9404C45.593 56.7982 44.4748 59.7574 43.5488 63.9785C41.7034 72.3913 40.7549 85.1612 40.7549 102.387C40.7549 122.985 41.6816 138.311 43.5 148.443C44.4126 153.529 45.5243 157.151 46.7627 159.451C48.0205 161.787 49.1135 162.267 49.8604 162.267C50.9734 162.267 52.1624 161.695 53.4004 159.805C54.6682 157.868 55.8054 154.787 56.7178 150.396L56.7197 150.388C58.5954 141.541 59.5586 127.605 59.5586 108.471C59.5586 89.2132 58.6035 74.9056 56.7354 65.459C55.7978 60.7182 54.6599 57.3625 53.4014 55.2412C52.1465 53.1261 51.0163 52.6045 50.1143 52.6045Z" stroke="#25E09E" stroke-width="4"/>
</svg>
