<svg width="205" height="215" viewBox="0 0 205 215" fill="none" xmlns="http://www.w3.org/2000/svg">
<path opacity="0.99" d="M49.6992 2C64.9624 2.00019 76.5298 12.1259 84.6074 31.0479C92.6803 49.9587 96.6494 75.9422 96.6494 108.859C96.6494 140.239 92.6491 165.4 84.5215 184.219L84.5195 184.222C76.404 202.925 65.1542 213 50.5293 213C34.8608 213 22.8956 202.922 14.4697 183.979L14.4688 183.979C6.10739 165.142 2 139.015 2 105.752C2.00003 74.2847 6.11217 49.1972 14.4736 30.624V30.6221C22.8884 11.9681 34.5686 2 49.6992 2ZM192.032 5.625V122.006H203V168.985H192.032V209.505H153.468V168.985H106.854V124.46L106.956 124.154L145.675 6.99707L146.129 5.625H192.032ZM49.2002 52.6045C48.268 52.6045 47.1886 53.0973 46.0098 54.9248C44.8104 56.7842 43.7128 59.7461 42.8047 63.9697C40.995 72.3865 40.0664 85.1603 40.0664 102.387C40.0664 122.986 40.9739 138.314 42.7568 148.45C43.6517 153.537 44.7428 157.163 45.958 159.466C47.1978 161.815 48.2617 162.267 48.9512 162.267C50.0054 162.267 51.1604 161.717 52.3779 159.82C53.6219 157.882 54.738 154.798 55.6328 150.404L55.6338 150.396C57.4732 141.546 58.417 127.606 58.417 108.471C58.417 89.2124 57.4813 74.9015 55.6494 65.4512C54.7301 60.7085 53.6137 57.3501 52.3789 55.2266C51.1432 53.1016 50.0444 52.6045 49.2002 52.6045ZM154.641 81.3447L154.639 81.3496C152.083 89.7446 149.526 97.5827 146.968 104.862L146.966 104.869C144.791 110.983 142.613 116.695 140.434 122.006H155.046V86.5928C155.046 85.0448 155.091 82.6983 155.177 79.5645L154.641 81.3447Z" stroke="#25E09E" stroke-width="4"/>
</svg>
