<svg width="295" height="148" viewBox="0 0 295 148" fill="none" xmlns="http://www.w3.org/2000/svg">
<g opacity="0.99">
<path d="M0 144.806C0 139.801 0 134.878 0 130.035C0 125.03 0 120.107 0 115.264C0 106.062 0.595201 98.878 1.7856 93.7122C3.07521 88.3849 5.10881 84.0262 7.88641 80.6361C10.664 77.246 14.2352 73.7751 18.6 70.2236C22.072 67.6407 24.7008 65.1384 26.4864 62.7169C28.3712 60.134 29.7105 57.1475 30.5041 53.7574C31.2977 50.3673 31.6945 46.0086 31.6945 40.6813C31.6945 35.5154 31.3473 31.641 30.6529 29.058C29.9585 26.3137 28.6192 24.9415 26.6352 24.9415C24.552 24.9415 23.1632 26.7173 22.4688 30.2688C21.7744 33.6589 21.4272 38.9055 21.4272 46.0086V55.2103H0.892801V35.8383C0.892801 24.215 3.07521 15.5783 7.44001 9.92816C11.8048 4.11655 18.3024 1.21075 26.9328 1.21075C33.5793 1.21075 38.7873 2.58294 42.5569 5.32731C46.4257 7.91025 49.1537 12.1882 50.7409 18.1613C52.3281 24.1343 53.1217 32.0446 53.1217 41.892C53.1217 53.3538 52.0305 62.4748 49.8481 69.255C47.7649 76.0352 44.0449 81.7661 38.6881 86.4477C36.5057 88.3849 34.4721 90.2414 32.5873 92.0171C30.7025 93.6315 29.0161 95.4072 27.528 97.3444C26.04 99.1202 24.8992 101.3 24.1056 103.882C23.312 105.658 22.6672 107.676 22.1712 109.936C21.7744 112.196 21.5264 114.779 21.4272 117.685H53.2705V144.806H0Z" fill="#25E09E"/>
<path d="M87.8782 147.954C82.7198 147.792 78.2062 146.097 74.3374 142.869C70.5677 139.64 67.5917 134.474 65.4093 127.371C63.3261 120.268 62.2845 110.582 62.2845 98.313V41.892C62.2845 27.5244 64.6157 16.9505 69.2781 10.1703C74.0397 3.3901 80.339 0 88.1758 0C95.6158 0 101.617 3.3901 106.181 10.1703C110.843 16.9505 113.174 27.5244 113.174 41.892V98.0709C113.174 110.501 112.133 120.349 110.049 127.613C107.966 134.878 104.99 140.124 101.121 143.353C97.3518 146.42 92.9374 147.954 87.8782 147.954ZM87.7294 128.34C89.2174 128.34 90.4078 127.371 91.3006 125.434C92.2926 123.497 92.7886 120.429 92.7886 116.232V31.9638C92.7886 27.7666 92.2926 24.7801 91.3006 23.0043C90.4078 21.0671 89.2174 20.0985 87.7294 20.0985C86.4398 20.0985 85.299 21.0671 84.307 23.0043C83.4142 24.7801 82.9678 27.7666 82.9678 31.9638V116.232C82.9678 120.429 83.4142 123.497 84.307 125.434C85.299 127.371 86.4398 128.34 87.7294 128.34Z" fill="#25E09E"/>
<path d="M148.834 147.954C143.676 147.792 139.162 146.097 135.293 142.869C131.524 139.64 128.548 134.474 126.365 127.371C124.282 120.268 123.24 110.582 123.24 98.313V41.892C123.24 27.5244 125.572 16.9505 130.234 10.1703C134.996 3.3901 141.295 0 149.132 0C156.572 0 162.573 3.3901 167.136 10.1703C171.799 16.9505 174.13 27.5244 174.13 41.892V98.0709C174.13 110.501 173.088 120.349 171.005 127.613C168.922 134.878 165.946 140.124 162.077 143.353C158.308 146.42 153.893 147.954 148.834 147.954ZM148.685 128.34C150.173 128.34 151.364 127.371 152.256 125.434C153.248 123.497 153.744 120.429 153.744 116.232V31.9638C153.744 27.7666 153.248 24.7801 152.256 23.0043C151.364 21.0671 150.173 20.0985 148.685 20.0985C147.396 20.0985 146.255 21.0671 145.263 23.0043C144.37 24.7801 143.924 27.7666 143.924 31.9638V116.232C143.924 120.429 144.37 123.497 145.263 125.434C146.255 127.371 147.396 128.34 148.685 128.34Z" fill="#25E09E"/>
<path d="M209.79 147.954C204.631 147.792 200.118 146.097 196.249 142.869C192.479 139.64 189.503 134.474 187.321 127.371C185.238 120.268 184.196 110.582 184.196 98.313V41.892C184.196 27.5244 186.527 16.9505 191.19 10.1703C195.951 3.3901 202.251 0 210.087 0C217.527 0 223.529 3.3901 228.092 10.1703C232.755 16.9505 235.086 27.5244 235.086 41.892V98.0709C235.086 110.501 234.044 120.349 231.961 127.613C229.878 134.878 226.902 140.124 223.033 143.353C219.263 146.42 214.849 147.954 209.79 147.954ZM209.641 128.34C211.129 128.34 212.319 127.371 213.212 125.434C214.204 123.497 214.7 120.429 214.7 116.232V31.9638C214.7 27.7666 214.204 24.7801 213.212 23.0043C212.319 21.0671 211.129 20.0985 209.641 20.0985C208.351 20.0985 207.211 21.0671 206.219 23.0043C205.326 24.7801 204.879 27.7666 204.879 31.9638V116.232C204.879 120.429 205.326 123.497 206.219 125.434C207.211 127.371 208.351 128.34 209.641 128.34Z" fill="#25E09E"/>
<path d="M269.258 146.743C262.71 146.743 257.602 145.452 253.931 142.869C250.36 140.124 247.88 136.008 246.491 130.519C245.102 124.869 244.408 117.927 244.408 109.694V100.977H264.645V116.959C264.645 121.156 264.942 124.223 265.538 126.16C266.133 128.098 267.323 129.066 269.109 129.066C270.597 129.066 271.638 128.259 272.234 126.645C272.928 125.03 273.275 122.77 273.275 119.864V109.694C273.275 105.658 272.779 102.672 271.787 100.735C270.894 98.6359 269.506 96.9408 267.621 95.6494C265.736 94.3579 263.454 92.8243 260.776 91.0485C258.395 89.4342 256.064 87.5777 253.782 85.4791C251.6 83.219 249.765 80.2325 248.277 76.5195C246.888 72.8065 246.193 68.0442 246.193 62.2326V55.4524C246.193 44.6364 247.979 36.5647 251.55 31.2374C255.122 25.7487 261.619 23.0043 271.043 23.0043C277.293 23.0043 282.154 24.2958 285.626 26.8787C289.098 29.3002 291.528 33.1746 292.917 38.5019C294.306 43.8292 295 50.448 295 58.3582V66.5913H275.358V52.5466C275.358 48.1879 275.061 45.1207 274.466 43.3449C273.87 41.4077 272.779 40.4391 271.192 40.4391C269.506 40.4391 268.365 41.327 267.77 43.1028C267.174 44.7171 266.877 46.735 266.877 49.1565V59.0847C266.877 62.7976 267.571 65.7035 268.96 67.8021C270.349 69.9007 272.085 71.5151 274.168 72.6451C276.35 73.7751 278.483 74.9859 280.566 76.2774C283.046 77.7302 285.378 79.506 287.56 81.6047C289.742 83.7033 291.528 86.5284 292.917 90.0799C294.306 93.6315 295 98.2323 295 103.882V111.873C295 119.461 294.206 125.837 292.619 131.003C291.032 136.169 288.403 140.124 284.733 142.869C281.062 145.452 275.904 146.743 269.258 146.743Z" fill="#25E09E"/>
</g>
</svg>
