<svg width="295" height="148" viewBox="0 0 295 148" fill="none" xmlns="http://www.w3.org/2000/svg">
<g opacity="0.99">
<path d="M0 144.806C0 139.801 0 134.878 0 130.035C0 125.03 0 120.107 0 115.264C0 106.062 0.623998 98.8781 1.87199 93.7122C3.22399 88.3849 5.35598 84.0262 8.26798 80.6361C11.18 77.246 14.924 73.7751 19.4999 70.2236C23.1399 67.6407 25.8959 65.1384 27.7679 62.7169C29.7439 60.134 31.1479 57.1475 31.9799 53.7574C32.8119 50.3673 33.2279 46.0086 33.2279 40.6813C33.2279 35.5154 32.8639 31.641 32.1359 29.058C31.4079 26.3137 30.0039 24.9415 27.9239 24.9415C25.7399 24.9415 24.2839 26.7173 23.5559 30.2688C22.8279 33.6589 22.4639 38.9055 22.4639 46.0086V55.2103H0.935997V35.8383C0.935997 24.215 3.22399 15.5783 7.79998 9.92816C12.376 4.11655 19.1879 1.21075 28.2359 1.21075C35.2039 1.21075 40.6639 2.58294 44.6159 5.32731C48.6719 7.91025 51.5319 12.1882 53.1958 18.1613C54.8598 24.1343 55.6918 32.0446 55.6918 41.892C55.6918 53.3538 54.5478 62.4748 52.2598 69.255C50.0759 76.0352 46.1759 81.7661 40.5599 86.4477C38.2719 88.3849 36.1399 90.2414 34.1639 92.0171C32.1879 93.6315 30.4199 95.4072 28.8599 97.3444C27.2999 99.1202 26.1039 101.3 25.2719 103.882C24.4399 105.658 23.7639 107.676 23.2439 109.936C22.8279 112.196 22.5679 114.779 22.4639 117.685H55.8478V144.806H0Z" fill="#25E09E"/>
<path d="M92.1299 147.954C86.7219 147.792 81.99 146.097 77.934 142.869C73.982 139.64 70.862 134.474 68.574 127.371C66.39 120.268 65.298 110.582 65.298 98.313V41.892C65.298 27.5244 67.742 16.9505 72.63 10.1703C77.622 3.3901 84.2259 0 92.4419 0C100.242 0 106.534 3.3901 111.318 10.1703C116.206 16.9505 118.65 27.5244 118.65 41.892V98.0709C118.65 110.501 117.558 120.349 115.374 127.613C113.19 134.878 110.07 140.124 106.014 143.353C102.062 146.42 97.4339 147.954 92.1299 147.954ZM91.9739 128.34C93.5339 128.34 94.7819 127.371 95.7179 125.434C96.7579 123.497 97.2779 120.429 97.2779 116.232V31.9638C97.2779 27.7666 96.7579 24.7801 95.7179 23.0043C94.7819 21.0671 93.5339 20.0985 91.9739 20.0985C90.6219 20.0985 89.4259 21.0671 88.3859 23.0043C87.4499 24.7801 86.9819 27.7666 86.9819 31.9638V116.232C86.9819 120.429 87.4499 123.497 88.3859 125.434C89.4259 127.371 90.6219 128.34 91.9739 128.34Z" fill="#25E09E"/>
<path d="M143.087 144.806V41.6499H127.019V22.7621L129.827 22.52C133.883 21.8743 137.107 19.937 139.499 16.7084C141.891 13.4797 143.971 8.47527 145.739 1.69506H164.771V144.806H143.087Z" fill="#25E09E"/>
<path d="M203.639 147.954C198.231 147.792 193.499 146.097 189.443 142.869C185.491 139.64 182.371 134.474 180.083 127.371C177.899 120.268 176.807 110.582 176.807 98.313V41.892C176.807 27.5244 179.251 16.9505 184.139 10.1703C189.131 3.3901 195.735 0 203.951 0C211.751 0 218.043 3.3901 222.827 10.1703C227.715 16.9505 230.159 27.5244 230.159 41.892V98.0709C230.159 110.501 229.067 120.349 226.883 127.613C224.699 134.878 221.579 140.124 217.523 143.353C213.571 146.42 208.943 147.954 203.639 147.954ZM203.483 128.34C205.043 128.34 206.291 127.371 207.227 125.434C208.267 123.497 208.787 120.429 208.787 116.232V31.9638C208.787 27.7666 208.267 24.7801 207.227 23.0043C206.291 21.0671 205.043 20.0985 203.483 20.0985C202.131 20.0985 200.935 21.0671 199.895 23.0043C198.959 24.7801 198.491 27.7666 198.491 31.9638V116.232C198.491 120.429 198.959 123.497 199.895 125.434C200.935 127.371 202.131 128.34 203.483 128.34Z" fill="#25E09E"/>
<path d="M266.452 146.501C256.78 146.501 249.916 143.999 245.86 138.994C241.908 133.99 239.932 125.515 239.932 113.569V106.062H262.084V115.506C262.084 120.187 262.5 123.416 263.332 125.192C264.164 126.967 265.464 127.855 267.232 127.855C269 127.855 270.3 127.048 271.132 125.434C272.068 123.82 272.536 120.349 272.536 115.021C272.536 110.34 271.964 106.95 270.82 104.851C269.78 102.591 268.012 100.735 265.516 99.2816C263.02 97.8287 259.796 95.9722 255.844 93.7122C252.204 91.4521 249.24 88.8692 246.952 85.9634C244.768 82.8961 243.156 79.1832 242.116 74.8245C241.18 70.4657 240.712 65.2999 240.712 59.3268C240.712 47.8651 242.688 39.2284 246.64 33.4168C250.592 27.4437 257.508 24.4572 267.388 24.4572C276.02 24.4572 282.624 26.8787 287.2 31.7217C291.776 36.5647 294.064 43.9099 294.064 53.7574V66.8335H272.848V61.5062C272.848 55.856 272.536 52.143 271.912 50.3673C271.288 48.4301 269.884 47.4615 267.7 47.4615C265.724 47.4615 264.372 48.2686 263.644 49.883C262.916 51.4973 262.552 54.2417 262.552 58.1161C262.552 62.3133 263.176 65.542 264.424 67.8021C265.672 69.9007 267.284 71.5151 269.26 72.6451C271.236 73.7751 273.316 74.8245 275.5 75.793C280.7 78.2146 284.704 80.8782 287.512 83.784C290.424 86.5284 292.4 89.9992 293.44 94.1965C294.48 98.3937 295 103.64 295 109.936C295 123.174 292.348 132.618 287.044 138.268C281.74 143.757 274.876 146.501 266.452 146.501Z" fill="#25E09E"/>
</g>
</svg>
