<svg width="295" height="148" viewBox="0 0 295 148" fill="none" xmlns="http://www.w3.org/2000/svg">
<g opacity="0.99">
<path d="M0 144.806C0 139.801 0 134.878 0 130.035C0 125.03 0 120.107 0 115.264C0 106.062 0.590457 98.8781 1.77137 93.7122C3.05069 88.3849 5.06809 84.0262 7.82355 80.6361C10.579 77.246 14.1218 73.7751 18.4518 70.2236C21.8961 67.6407 24.504 65.1384 26.2753 62.7169C28.1451 60.134 29.4736 57.1475 30.2609 53.7574C31.0482 50.3673 31.4418 46.0086 31.4418 40.6813C31.4418 35.5154 31.0974 31.641 30.4085 29.058C29.7197 26.3137 28.3911 24.9415 26.4229 24.9415C24.3563 24.9415 22.9786 26.7173 22.2897 30.2688C21.6009 33.6589 21.2564 38.9055 21.2564 46.0086V55.2103H0.885685V35.8383C0.885685 24.215 3.05069 15.5783 7.38071 9.92816C11.7107 4.11655 18.1565 1.21075 26.7182 1.21075C33.3116 1.21075 38.4781 2.58294 42.2177 5.32731C46.0556 7.91025 48.7619 12.1882 50.3364 18.1613C51.911 24.1343 52.6983 32.0446 52.6983 41.892C52.6983 53.3538 51.6158 62.4748 49.4507 69.255C47.3842 76.0352 43.6938 81.7661 38.3797 86.4477C36.2147 88.3849 34.1973 90.2414 32.3275 92.0171C30.4577 93.6315 28.7848 95.4072 27.3086 97.3444C25.8325 99.1202 24.7008 101.3 23.9135 103.882C23.1262 105.658 22.4866 107.676 21.9945 109.936C21.6009 112.196 21.3549 114.779 21.2564 117.685H52.8459V144.806H0Z" fill="#25E09E"/>
<path d="M87.1777 147.954C82.0604 147.792 77.5828 146.097 73.7448 142.869C70.0053 139.64 67.053 134.474 64.888 127.371C62.8214 120.268 61.7881 110.582 61.7881 98.313V41.892C61.7881 27.5244 64.1007 16.9505 68.7259 10.1703C73.4496 3.3901 79.6986 0 87.4729 0C94.8536 0 100.807 3.3901 105.334 10.1703C109.959 16.9505 112.272 27.5244 112.272 41.892V98.0709C112.272 110.501 111.239 120.349 109.172 127.613C107.106 134.878 104.153 140.124 100.315 143.353C96.5758 146.42 92.1966 147.954 87.1777 147.954ZM87.0301 128.34C88.5062 128.34 89.6871 127.371 90.5728 125.434C91.5569 123.497 92.049 120.429 92.049 116.232V31.9638C92.049 27.7666 91.5569 24.7801 90.5728 23.0043C89.6871 21.0671 88.5062 20.0985 87.0301 20.0985C85.7508 20.0985 84.6191 21.0671 83.635 23.0043C82.7493 24.7801 82.3064 27.7666 82.3064 31.9638V116.232C82.3064 120.429 82.7493 123.497 83.635 125.434C84.6191 127.371 85.7508 128.34 87.0301 128.34Z" fill="#25E09E"/>
<path d="M121.372 144.806C121.372 139.801 121.372 134.878 121.372 130.035C121.372 125.03 121.372 120.107 121.372 115.264C121.372 106.062 121.963 98.8781 123.144 93.7122C124.423 88.3849 126.44 84.0262 129.196 80.6361C131.951 77.246 135.494 73.7751 139.824 70.2236C143.268 67.6407 145.876 65.1384 147.648 62.7169C149.517 60.134 150.846 57.1475 151.633 53.7574C152.42 50.3673 152.814 46.0086 152.814 40.6813C152.814 35.5154 152.47 31.641 151.781 29.058C151.092 26.3137 149.763 24.9415 147.795 24.9415C145.729 24.9415 144.351 26.7173 143.662 30.2688C142.973 33.6589 142.629 38.9055 142.629 46.0086V55.2103H122.258V35.8383C122.258 24.215 124.423 15.5783 128.753 9.92816C133.083 4.11655 139.529 1.21075 148.09 1.21075C154.684 1.21075 159.85 2.58294 163.59 5.32731C167.428 7.91025 170.134 12.1882 171.709 18.1613C173.283 24.1343 174.071 32.0446 174.071 41.892C174.071 53.3538 172.988 62.4748 170.823 69.255C168.756 76.0352 165.066 81.7661 159.752 86.4477C157.587 88.3849 155.57 90.2414 153.7 92.0171C151.83 93.6315 150.157 95.4072 148.681 97.3444C147.205 99.1202 146.073 101.3 145.286 103.882C144.499 105.658 143.859 107.676 143.367 109.936C142.973 112.196 142.727 114.779 142.629 117.685H174.218V144.806H121.372Z" fill="#25E09E"/>
<path d="M208.55 147.954C203.433 147.792 198.955 146.097 195.117 142.869C191.378 139.64 188.425 134.474 186.26 127.371C184.194 120.268 183.16 110.582 183.16 98.313V41.892C183.16 27.5244 185.473 16.9505 190.098 10.1703C194.822 3.3901 201.071 0 208.845 0C216.226 0 222.18 3.3901 226.707 10.1703C231.332 16.9505 233.644 27.5244 233.644 41.892V98.0709C233.644 110.501 232.611 120.349 230.545 127.613C228.478 134.878 225.526 140.124 221.688 143.353C217.948 146.42 213.569 147.954 208.55 147.954ZM208.402 128.34C209.879 128.34 211.059 127.371 211.945 125.434C212.929 123.497 213.421 120.429 213.421 116.232V31.9638C213.421 27.7666 212.929 24.7801 211.945 23.0043C211.059 21.0671 209.879 20.0985 208.402 20.0985C207.123 20.0985 205.991 21.0671 205.007 23.0043C204.122 24.7801 203.679 27.7666 203.679 31.9638V116.232C203.679 120.429 204.122 123.497 205.007 125.434C205.991 127.371 207.123 128.34 208.402 128.34Z" fill="#25E09E"/>
<path d="M267.987 146.501C258.835 146.501 252.34 143.999 248.502 138.994C244.762 133.99 242.892 125.515 242.892 113.569V106.062H263.853V115.506C263.853 120.187 264.247 123.416 265.034 125.192C265.822 126.967 267.052 127.855 268.725 127.855C270.398 127.855 271.628 127.048 272.415 125.434C273.301 123.82 273.744 120.349 273.744 115.021C273.744 110.34 273.202 106.95 272.12 104.851C271.136 102.591 269.463 100.735 267.101 99.2816C264.739 97.8287 261.688 95.9722 257.949 93.7122C254.505 91.4521 251.7 88.8692 249.535 85.9634C247.468 82.8961 245.943 79.1832 244.959 74.8245C244.073 70.4657 243.63 65.2999 243.63 59.3268C243.63 47.8651 245.5 39.2284 249.24 33.4168C252.979 27.4437 259.523 24.4572 268.872 24.4572C277.04 24.4572 283.289 26.8787 287.619 31.7217C291.949 36.5647 294.114 43.9099 294.114 53.7574V66.8335H274.039V61.5062C274.039 55.856 273.744 52.143 273.153 50.3673C272.563 48.4301 271.234 47.4615 269.168 47.4615C267.298 47.4615 266.018 48.2686 265.33 49.883C264.641 51.4973 264.296 54.2417 264.296 58.1161C264.296 62.3133 264.887 65.542 266.068 67.8021C267.249 69.9007 268.774 71.5151 270.644 72.6451C272.513 73.7751 274.482 74.8245 276.548 75.793C281.469 78.2146 285.257 80.8782 287.915 83.784C290.67 86.5284 292.54 89.9992 293.524 94.1965C294.508 98.3937 295 103.64 295 109.936C295 123.174 292.491 132.618 287.472 138.268C282.453 143.757 275.958 146.501 267.987 146.501Z" fill="#25E09E"/>
</g>
</svg>
