<svg width="603" height="120" viewBox="0 0 603 120" fill="none" xmlns="http://www.w3.org/2000/svg">
<path d="M0 117.974V2.10131H30.7899C42.3018 2.10131 50.8298 5.10319 56.3741 11.1069C62.0031 17.2608 64.8176 25.2158 64.8176 34.9719C64.8176 49.4809 58.723 57.3358 46.534 58.5366C53.475 59.7373 58.5538 62.439 61.7703 66.6416C65.0292 70.8443 66.6586 76.8981 66.6586 84.803C66.6586 94.7592 63.9288 102.764 58.4691 108.818C53.0518 114.922 45.9204 117.974 37.0749 117.974H0ZM26.473 92.833C26.9809 92.8831 27.4252 92.9331 27.8062 92.9831C28.1871 92.9831 28.5045 92.9831 28.7584 92.9831C32.0596 92.9831 34.6836 91.9575 36.6305 89.9062C38.6197 87.8549 39.6143 85.1032 39.6143 81.651C39.6143 78.1989 38.6197 75.4972 36.6305 73.546C34.6836 71.5947 31.9961 70.6191 28.568 70.6191H26.473V92.833ZM26.473 47.1295H28.2505C31.4248 47.1295 33.9218 46.2539 35.7417 44.5028C37.6039 42.7517 38.535 40.3002 38.535 37.1482C38.535 30.444 35.4243 27.0919 29.2028 27.0919C28.9066 27.0919 28.5256 27.1169 28.0601 27.167C27.6369 27.167 27.1078 27.192 26.473 27.242V47.1295Z" fill="white"/>
<path d="M71.458 117.974V2.10131H120.658V29.3433H97.931V46.2289H118.309V72.4203H97.931V90.1313H120.658V117.974H71.458Z" fill="white"/>
<path d="M191.101 117.974H164.628V71.3696H151.994V117.974H125.521V2.10131H151.994V43.0769H164.628V2.10131H191.101V117.974Z" fill="white"/>
<path d="M268.971 117.974H241.609L239.641 103.265H221.802L219.643 117.974H192.281L215.834 2.10131H248.211L268.971 117.974ZM236.53 78.424L234.816 64.9156C234.774 64.8655 234.689 64.1901 234.562 62.8893C234.477 61.7886 234.033 57.4359 233.229 49.8311C233.144 48.9806 233.038 47.8299 232.911 46.379C232.784 44.878 232.615 43.0019 232.404 40.7505L231.578 29.7936C231.494 30.8443 231.367 32.02 231.197 33.3208C231.07 34.6216 230.922 36.0475 230.753 37.5985C230.457 40.7004 230.245 42.8518 230.118 44.0525C229.991 45.2533 229.907 45.9787 229.864 46.2289L228.023 60.2627L225.357 78.424H236.53Z" fill="white"/>
<path d="M312.813 117.974H285.832L263.359 2.10131H291.165L295.99 35.197C297.809 47.8549 299.27 62.0138 300.37 77.6735C300.836 70.7192 301.407 64.2151 302.084 58.1614C302.761 52.1076 303.565 46.2039 304.496 40.4503L310.781 2.10131H339.54L312.813 117.974Z" fill="white"/>
<path d="M366.368 117.974H339.895V2.10131H366.368V117.974Z" fill="white"/>
<path d="M445.698 60.4128C445.698 78.0738 442.291 92.4328 435.477 103.49C428.706 114.497 419.881 120 409.004 120C399.355 120 391.081 115.772 384.182 107.317C375.506 96.6104 371.168 80.5503 371.168 59.137C371.168 38.6241 375.696 22.9393 384.753 12.0826C391.483 4.02752 399.461 0 408.687 0C419.987 0 428.981 5.45341 435.668 16.3602C442.355 27.267 445.698 41.9512 445.698 60.4128ZM418.21 60.6379C418.21 39.6748 415.078 29.1932 408.814 29.1932C405.682 29.1932 403.185 31.945 401.323 37.4484C399.503 42.5516 398.593 50.0563 398.593 59.9625C398.593 69.7186 399.439 77.2983 401.132 82.7017C402.868 88.055 405.259 90.7317 408.306 90.7317C411.438 90.7317 413.85 88.08 415.543 82.7767C417.321 77.4734 418.21 70.0938 418.21 60.6379Z" fill="white"/>
<path d="M520.267 117.974H491.636L478.558 76.6979C478.431 75.9975 478.198 75.0719 477.86 73.9212C477.563 72.7705 477.182 71.3946 476.717 69.7936L476.907 77.4484V117.974H450.561V2.10131H477.669C489.604 2.10131 498.534 4.87805 504.46 10.4315C511.993 17.536 515.76 27.6423 515.76 40.7505C515.76 54.7592 510.702 64.4403 500.587 69.7936L520.267 117.974ZM477.034 55.7598H478.812C481.859 55.7598 484.398 54.384 486.43 51.6323C488.461 48.8806 489.477 45.3784 489.477 41.1257C489.477 32.4703 485.647 28.1426 477.987 28.1426H477.034V55.7598Z" fill="white"/>
<path d="M520.432 115.122V78.7242C525.638 87.1295 531.267 91.3321 537.319 91.3321C539.604 91.3321 541.467 90.6316 542.906 89.2308C544.345 87.7799 545.064 85.9787 545.064 83.8274C545.064 80.7255 543.498 77.6986 540.366 74.7467L536.049 70.7692C533.171 68.2176 530.717 65.6911 528.685 63.1895C526.654 60.6379 525.003 58.0363 523.733 55.3846C522.464 52.6829 521.533 49.9062 520.94 47.0544C520.348 44.2026 520.051 41.2007 520.051 38.0488C520.051 32.6454 521.109 26.9919 523.226 21.0882C524.284 18.3365 525.511 15.8349 526.908 13.5835C528.304 11.2821 529.913 9.25578 531.732 7.50469C536.727 2.50156 542.758 0 549.825 0C556.132 0 562.48 1.97624 568.871 5.92871V41.3508C566.712 37.3984 564.258 34.2964 561.507 32.045C558.756 29.7436 556.047 28.5929 553.381 28.5929C551.349 28.5929 549.677 29.2933 548.365 30.6942C547.011 32.045 546.334 33.671 546.334 35.5722C546.334 38.6742 548.133 41.7511 551.73 44.803L555.92 48.4803C561.507 53.2333 565.506 58.1113 567.919 63.1144C570.373 68.1176 571.601 73.9712 571.601 80.6754C571.601 92.0826 568.659 101.488 562.776 108.893C556.893 116.298 549.445 120 540.43 120C534.208 120 527.542 118.374 520.432 115.122Z" fill="white"/>
<path d="M603 102.514C603 107.217 601.54 111.245 598.62 114.597C595.784 117.949 592.313 119.625 588.208 119.625C584.145 119.625 580.611 117.924 577.606 114.522C574.686 111.069 573.226 106.892 573.226 101.989C573.226 97.1857 574.665 93.0832 577.543 89.6811C580.421 86.2789 583.891 84.5779 587.954 84.5779C592.144 84.5779 595.699 86.329 598.62 89.8311C601.54 93.2833 603 97.5109 603 102.514Z" fill="#2CFFB5"/>
</svg>
