<svg width="421" height="155" viewBox="0 0 421 155" fill="none" xmlns="http://www.w3.org/2000/svg">
<g opacity="0.99">
<path d="M64.7957 69.1899H47.4425L46.2087 38.2041L45.6913 25.8362C45.5056 28.2129 45.2933 30.487 45.0545 32.6583C44.8157 34.8004 44.5238 36.8837 44.1789 38.9083L38.965 69.1899H25.4327L20.975 38.8643C20.7097 37.1037 20.3515 34.0815 19.9004 29.7974C19.8473 29.1519 19.7279 27.8315 19.5422 25.8362L19.1442 38.3801L17.6716 69.1899H0L7.16414 1.23239H27.8208L31.2834 24.1196C31.5753 25.9976 31.8274 28.0369 32.0396 30.2376C32.2784 32.4383 32.4907 34.8297 32.6764 37.4118C33.0214 33.0985 33.499 29.2399 34.1093 25.8362L38.3282 1.23239H58.8256L64.7957 69.1899Z" fill="black"/>
<path d="M90.386 69.1899H73.7891V1.23239H90.386V69.1899Z" fill="black"/>
<path d="M100.653 69.1899V1.23239H116.494L124.812 25.0879C125.263 26.4964 125.767 28.1102 126.325 29.9295C126.908 31.7487 127.545 33.8467 128.235 36.2235L129.946 42.2094C129.336 36.3115 128.872 31.2646 128.553 27.0686C128.235 22.8726 128.076 19.3515 128.076 16.5052V1.23239H143.916V69.1899H128.076L119.718 44.19C118.842 41.5198 118.046 39.0257 117.33 36.7076C116.64 34.3602 116.029 32.1302 115.499 30.0175C115.844 34.8004 116.096 38.967 116.255 42.5175C116.414 46.0679 116.494 49.1782 116.494 51.8484V69.1899H100.653Z" fill="black"/>
<path d="M154.183 69.1899V1.23239H168.512C176.711 1.23239 183.092 3.66783 187.656 8.5387C193.653 14.9061 196.651 23.8115 196.651 35.2552C196.651 46.5227 194.117 55.2228 189.049 61.3554C184.724 66.5784 178.276 69.1899 169.706 69.1899H154.183ZM170.78 52.7727C176.724 52.4499 179.696 46.7868 179.696 35.7833C179.696 30.3549 178.94 26.0709 177.427 22.9313C175.915 19.7623 173.872 18.1778 171.298 18.1778H170.78V52.7727Z" fill="black"/>
<path d="M221.087 51.5403H201.107V37.94H221.087V51.5403Z" fill="black"/>
<path d="M227.016 69.1899V1.23239H246.319C253.536 1.23239 258.883 2.99295 262.359 6.51406C265.888 10.1232 267.652 14.7887 267.652 20.5105C267.652 29.0199 263.831 33.6266 256.19 34.3309C260.541 35.0351 263.725 36.6196 265.742 39.0844C267.785 41.5492 268.807 45.0996 268.807 49.7357C268.807 55.5749 267.095 60.2697 263.672 63.8202C260.276 67.4 255.805 69.1899 250.259 69.1899H227.016ZM243.613 54.4452C243.931 54.4746 244.21 54.5039 244.448 54.5333C244.687 54.5333 244.886 54.5333 245.045 54.5333C247.115 54.5333 248.76 53.9317 249.981 52.7287C251.228 51.5256 251.851 49.9118 251.851 47.8872C251.851 45.8625 251.228 44.278 249.981 43.1337C248.76 41.9893 247.075 41.4171 244.926 41.4171H243.613V54.4452ZM243.613 27.6407H244.727C246.717 27.6407 248.283 27.1273 249.424 26.1003C250.591 25.0733 251.175 23.6355 251.175 21.7869C251.175 17.855 249.225 15.889 245.324 15.889C245.138 15.889 244.9 15.9037 244.608 15.933C244.342 15.933 244.011 15.9477 243.613 15.9771V27.6407Z" fill="black"/>
<path d="M322.456 35.4312C322.456 45.7892 320.32 54.2105 316.049 60.6952C311.803 67.1506 306.271 70.3783 299.452 70.3783C293.402 70.3783 288.215 67.8988 283.889 62.9399C278.45 56.6606 275.73 47.2416 275.73 34.683C275.73 22.6525 278.569 13.4536 284.248 7.08624C288.467 2.36208 293.468 0 299.253 0C306.337 0 311.976 3.19835 316.168 9.59504C320.36 15.9917 322.456 24.6038 322.456 35.4312ZM305.223 35.5633C305.223 23.2687 303.259 17.1214 299.332 17.1214C297.369 17.1214 295.803 18.7353 294.636 21.963C293.495 24.9559 292.924 29.3573 292.924 35.1671C292.924 40.8889 293.455 45.3344 294.516 48.5034C295.604 51.643 297.103 53.2128 299.014 53.2128C300.977 53.2128 302.49 51.6577 303.551 48.5474C304.665 45.437 305.223 41.109 305.223 35.5633Z" fill="black"/>
<path d="M331.211 69.1899V1.23239H345.539C353.738 1.23239 360.12 3.66783 364.684 8.5387C370.68 14.9061 373.678 23.8115 373.678 35.2552C373.678 46.5227 371.145 55.2228 366.077 61.3554C361.751 66.5784 355.304 69.1899 346.733 69.1899H331.211ZM347.808 52.7727C353.752 52.4499 356.723 46.7868 356.723 35.7833C356.723 30.3549 355.967 26.0709 354.455 22.9313C352.942 19.7623 350.899 18.1778 348.325 18.1778H347.808V52.7727Z" fill="black"/>
<path d="M406.712 69.1899H390.115V40.4048L374.871 1.23239H392.184L395.169 11.3116C395.753 13.2775 396.27 15.1701 396.722 16.9894C397.199 18.8086 397.624 20.5545 397.995 22.227C398.605 19.7329 399.136 17.5909 399.587 15.801C400.038 13.9818 400.436 12.5146 400.781 11.3996L403.806 1.23239H421L406.712 40.4048V69.1899Z" fill="black"/>
<path d="M18.1492 153.812H1.55223V85.8541H30.8854V101.831H18.1492V111.734H30.0098V127.095H18.1492V153.812Z" fill="black"/>
<path d="M55.6001 153.812H39.0032V85.8541H55.6001V153.812Z" fill="black"/>
<path d="M87.3197 153.812H70.7228V102.139H61.5686V85.8541H96.8321V102.139H87.3197V153.812Z" fill="black"/>
<path d="M102.761 153.812V85.8541H118.602L126.92 109.71C127.371 111.118 127.875 112.732 128.432 114.551C129.016 116.37 129.653 118.468 130.343 120.845L132.054 126.831C131.444 120.933 130.98 115.886 130.661 111.69C130.343 107.494 130.184 103.973 130.184 101.127V85.8541H146.024V153.812H130.184L121.825 128.812C120.95 126.142 120.154 123.647 119.437 121.329C118.748 118.982 118.137 116.752 117.607 114.639C117.951 119.422 118.204 123.589 118.363 127.139C118.522 130.69 118.602 133.8 118.602 136.47V153.812H102.761Z" fill="black"/>
<path d="M156.291 153.812V85.8541H187.137V101.831H172.888V111.734H185.664V127.095H172.888V137.482H187.137V153.812H156.291Z" fill="black"/>
<path d="M194.578 152.139V130.792C197.842 135.722 201.371 138.187 205.165 138.187C206.598 138.187 207.765 137.776 208.668 136.954C209.57 136.103 210.021 135.047 210.021 133.785C210.021 131.966 209.039 130.191 207.076 128.46L204.369 126.127C202.565 124.63 201.026 123.149 199.752 121.681C198.479 120.185 197.444 118.659 196.648 117.104C195.852 115.52 195.268 113.891 194.897 112.218C194.525 110.546 194.339 108.785 194.339 106.937C194.339 103.768 195.003 100.452 196.329 96.9896C196.993 95.3758 197.762 93.9087 198.638 92.5882C199.513 91.2385 200.522 90.0501 201.663 89.0231C204.794 86.0889 208.575 84.6217 213.006 84.6217C216.959 84.6217 220.939 85.7808 224.946 88.0988V108.873C223.593 106.555 222.054 104.736 220.329 103.416C218.605 102.066 216.906 101.391 215.235 101.391C213.961 101.391 212.913 101.802 212.09 102.623C211.241 103.416 210.817 104.369 210.817 105.484C210.817 107.304 211.945 109.108 214.2 110.898L216.827 113.055C220.329 115.842 222.837 118.703 224.349 121.637C225.888 124.572 226.658 128.005 226.658 131.937C226.658 138.627 224.813 144.143 221.125 148.486C217.437 152.829 212.767 155 207.115 155C203.215 155 199.036 154.046 194.578 152.139Z" fill="black"/>
<path d="M233.462 152.139V130.792C236.726 135.722 240.255 138.187 244.049 138.187C245.482 138.187 246.649 137.776 247.551 136.954C248.454 136.103 248.905 135.047 248.905 133.785C248.905 131.966 247.923 130.191 245.959 128.46L243.253 126.127C241.449 124.63 239.91 123.149 238.636 121.681C237.362 120.185 236.328 118.659 235.532 117.104C234.736 115.52 234.152 113.891 233.78 112.218C233.409 110.546 233.223 108.785 233.223 106.937C233.223 103.768 233.886 100.452 235.213 96.9896C235.876 95.3758 236.646 93.9087 237.522 92.5882C238.397 91.2385 239.405 90.0501 240.546 89.0231C243.677 86.0889 247.458 84.6217 251.89 84.6217C255.843 84.6217 259.823 85.7808 263.83 88.0988V108.873C262.477 106.555 260.938 104.736 259.213 103.416C257.488 102.066 255.79 101.391 254.118 101.391C252.845 101.391 251.797 101.802 250.974 102.623C250.125 103.416 249.701 104.369 249.701 105.484C249.701 107.304 250.828 109.108 253.084 110.898L255.711 113.055C259.213 115.842 261.72 118.703 263.233 121.637C264.772 124.572 265.541 128.005 265.541 131.937C265.541 138.627 263.697 144.143 260.009 148.486C256.321 152.829 251.651 155 245.999 155C242.099 155 237.92 154.046 233.462 152.139Z" fill="black"/>
</g>
</svg>
