<svg width="349" height="121" viewBox="0 0 349 121" fill="none" xmlns="http://www.w3.org/2000/svg">
<g opacity="0.99">
<path d="M56.1745 118.41H33.4981V71.6338H22.6765V118.41H0V2.10909H22.6765V43.2364H33.4981V2.10909H56.1745V118.41Z" fill="black"/>
<path d="M92.8789 118.41H70.2024V2.10909H92.8789V118.41Z" fill="black"/>
<path d="M168.519 118.41H144.048L128.985 64.7792L129.583 118.41H106.907V2.10909H129.583L128.985 51.974L142.363 2.10909H166.29L148.181 58.226L168.519 118.41Z" fill="black"/>
<path d="M200.003 118.41H177.327V2.10909H200.003V118.41Z" fill="black"/>
<path d="M214.031 118.41V2.10909H235.674L247.04 42.9351C247.656 45.3455 248.345 48.1074 249.106 51.2208C249.904 54.3342 250.774 57.9247 251.716 61.9922L254.055 72.2364C253.221 62.1429 252.586 53.5056 252.151 46.3247C251.716 39.1437 251.499 33.1177 251.499 28.2468V2.10909H273.142V118.41H251.499L240.079 75.626C238.883 71.0563 237.795 66.7879 236.816 62.8208C235.874 58.8035 235.04 54.987 234.315 51.3714C234.786 59.5567 235.13 66.6875 235.348 72.7637C235.565 78.8399 235.674 84.1628 235.674 88.7325V118.41H214.031Z" fill="black"/>
<path d="M317.351 51.1455H349V55.9662C349 78.3628 346.589 94.4823 341.767 104.325C336.511 115.071 328.734 120.444 318.438 120.444C308.324 120.444 300.384 115.171 294.62 104.626C288.892 93.9801 286.028 79.3671 286.028 60.787C286.028 41.9559 288.91 27.1169 294.674 16.2701C300.439 5.42338 308.324 0 318.33 0C331.598 0 341.224 9.59133 347.205 28.774L325.236 39.9221C324.91 36.2563 324.148 33.3688 322.952 31.2597C321.792 29.1004 320.324 28.0208 318.547 28.0208C312.312 28.0208 309.194 39.897 309.194 63.6494C309.194 73.7429 309.883 81.0745 311.26 85.6442C312.638 90.2139 314.831 92.4987 317.84 92.4987C319.037 92.4987 320.124 92.097 321.103 91.2935C322.082 90.4901 322.898 89.3602 323.55 87.9039C324.239 86.4476 324.765 84.6901 325.127 82.6312C325.526 80.5221 325.725 78.187 325.725 75.626H317.351V51.1455Z" fill="black"/>
</g>
</svg>
