<svg width="329" height="121" viewBox="0 0 329 121" fill="none" xmlns="http://www.w3.org/2000/svg">
<g opacity="0.99">
<path d="M0.326236 115.532V79.0049C4.78479 87.4401 9.60583 91.6577 14.7894 91.6577C16.7468 91.6577 18.3417 90.9547 19.5741 89.5489C20.8066 88.0928 21.4228 86.2852 21.4228 84.1262C21.4228 81.0132 20.0816 77.9755 17.3992 75.0132L13.7019 71.0216C11.237 68.4609 9.1346 65.9253 7.39467 63.4148C5.65475 60.8541 4.24106 58.2432 3.15361 55.5821C2.06616 52.8708 1.26869 50.0841 0.761214 47.2222C0.253736 44.3602 0 41.3476 0 38.1844C0 32.7618 0.906209 27.0881 2.71863 21.1634C3.62484 18.4018 4.67604 15.8914 5.87224 13.632C7.06844 11.3223 8.44587 9.28882 10.0046 7.53149C14.2819 2.51052 19.4473 0 25.5008 0C30.9018 0 36.339 1.9833 41.8125 5.94986V41.4983C39.9639 37.5317 37.8615 34.4187 35.5053 32.1593C33.1492 29.8497 30.8293 28.6948 28.5456 28.6948C26.8057 28.6948 25.3739 29.3978 24.2502 30.8037C23.0902 32.1593 22.5103 33.7911 22.5103 35.6991C22.5103 38.8121 24.0508 41.9 27.1319 44.9628L30.7205 48.6531C35.5053 53.423 38.9308 58.3185 40.9969 63.3395C43.0994 68.3604 44.1506 74.2349 44.1506 80.963C44.1506 92.4108 41.6313 101.85 36.5928 109.281C31.5542 116.712 25.1745 120.428 17.4536 120.428C12.1251 120.428 6.41597 118.796 0.326236 115.532Z" fill="black"/>
<path d="M115.05 118.394H91.6157L89.9301 103.633H74.6514L72.8027 118.394H49.3681L69.5404 2.10885H97.2704L115.05 118.394ZM87.2659 78.7036L85.7978 65.147C85.7616 65.0968 85.6891 64.419 85.5803 63.1135C85.5078 62.0089 85.1272 57.6406 84.4385 50.0088C84.366 49.1552 84.2754 48.0004 84.1666 46.5443C84.0579 45.038 83.9129 43.1552 83.7316 40.8957L83.0248 29.8999C82.9523 30.9543 82.8436 32.1342 82.6986 33.4396C82.5898 34.7451 82.4629 36.1761 82.318 37.7326C82.0642 40.8455 81.883 43.0046 81.7742 44.2096C81.6655 45.4146 81.593 46.1427 81.5567 46.3937L79.9799 60.4775L77.6963 78.7036H87.2659Z" fill="black"/>
<path d="M158.166 2.10885H180.839V84.3522C180.839 91.2309 180.06 96.8041 178.501 101.072C176.978 105.541 174.441 109.582 170.889 113.198C166.104 118.018 160.286 120.428 153.435 120.428C145.678 120.428 139.171 117.767 133.915 112.444C127.246 105.666 123.911 94.8209 123.911 79.9086V2.10885H146.584V77.122C146.584 82.1932 147.019 85.7832 147.889 87.892C148.795 90.0008 150.3 91.0551 152.402 91.0551C154.577 91.0551 156.081 90.0761 156.915 88.1179C157.749 86.0593 158.166 82.4191 158.166 77.1973V2.10885Z" fill="black"/>
<path d="M194.865 118.394V2.10885H216.505L227.869 42.9292C228.485 45.3393 229.174 48.1008 229.935 51.2138C230.733 54.3268 231.603 57.9168 232.545 61.9838L234.883 72.2266C234.049 62.1344 233.415 53.4984 232.98 46.3184C232.545 39.1385 232.328 33.1133 232.328 28.2429V2.10885H253.968V118.394H232.328L220.909 75.6157C219.713 71.0466 218.626 66.7788 217.647 62.8122C216.705 58.7955 215.871 54.9795 215.146 51.3644C215.617 59.5486 215.961 66.6784 216.179 72.7538C216.396 78.8292 216.505 84.1514 216.505 88.7204V118.394H194.865Z" fill="black"/>
<path d="M329 118.394H305.565L303.88 103.633H288.601L286.752 118.394H263.318L283.49 2.10885H311.22L329 118.394ZM301.216 78.7036L299.747 65.147C299.711 65.0968 299.639 64.419 299.53 63.1135C299.458 62.0089 299.077 57.6406 298.388 50.0088C298.316 49.1552 298.225 48.0004 298.116 46.5443C298.008 45.038 297.863 43.1552 297.681 40.8957L296.974 29.8999C296.902 30.9543 296.793 32.1342 296.648 33.4396C296.539 34.7451 296.413 36.1761 296.268 37.7326C296.014 40.8455 295.833 43.0046 295.724 44.2096C295.615 45.4146 295.543 46.1427 295.506 46.3937L293.93 60.4775L291.646 78.7036H301.216Z" fill="black"/>
</g>
</svg>
