<svg width="457" height="121" viewBox="0 0 457 121" fill="none" xmlns="http://www.w3.org/2000/svg">
<g opacity="0.99">
<path d="M59.6175 118.228H35.1298L23.9447 76.8635C23.8361 76.1616 23.637 75.234 23.3475 74.0808C23.0941 72.9276 22.7683 71.5488 22.3701 69.9443L22.533 77.6156V118.228H0V2.10585H23.1846C33.3923 2.10585 41.03 4.88858 46.0977 10.454C52.5408 17.5738 55.7624 27.702 55.7624 40.8384C55.7624 54.8774 51.4368 64.5794 42.7856 69.9443L59.6175 118.228ZM22.6416 55.8802H24.1619C26.7681 55.8802 28.94 54.5014 30.6775 51.7437C32.415 48.9861 33.2837 45.4763 33.2837 41.2145C33.2837 32.5404 30.0078 28.2033 23.4561 28.2033H22.6416V55.8802Z" fill="black"/>
<path d="M102.89 2.10585H125.531V84.234C125.531 91.1031 124.753 96.6685 123.196 100.93C121.676 105.393 119.142 109.429 115.595 113.039C110.817 117.852 105.007 120.259 98.1658 120.259C90.4195 120.259 83.922 117.602 78.6734 112.287C72.013 105.518 68.6828 94.688 68.6828 79.7967V2.10585H91.3244V77.0139C91.3244 82.078 91.7588 85.663 92.6275 87.7688C93.5325 89.8747 95.0347 90.9276 97.1341 90.9276C99.306 90.9276 100.808 89.9499 101.641 87.9944C102.473 85.9387 102.89 82.3036 102.89 77.0891V2.10585Z" fill="black"/>
<path d="M139.537 118.228V2.10585H161.147L172.495 42.8691C173.111 45.2758 173.799 48.0334 174.559 51.1421C175.355 54.2507 176.224 57.8357 177.165 61.8969L179.5 72.1254C178.667 62.0474 178.034 53.4234 177.599 46.2535C177.165 39.0836 176.948 33.0669 176.948 28.2033V2.10585H198.558V118.228H176.948L165.545 75.5098C164.351 70.9471 163.265 66.6852 162.288 62.7242C161.347 58.7131 160.514 54.9025 159.79 51.2925C160.261 59.4652 160.604 66.585 160.822 72.6518C161.039 78.7187 161.147 84.0334 161.147 88.5961V118.228H139.537Z" fill="black"/>
<path d="M212.564 118.228V2.10585H234.174L245.522 42.8691C246.137 45.2758 246.825 48.0334 247.585 51.1421C248.382 54.2507 249.25 57.8357 250.191 61.8969L252.526 72.1254C251.694 62.0474 251.06 53.4234 250.626 46.2535C250.191 39.0836 249.974 33.0669 249.974 28.2033V2.10585H271.584V118.228H249.974L238.572 75.5098C237.377 70.9471 236.292 66.6852 235.314 62.7242C234.373 58.7131 233.541 54.9025 232.817 51.2925C233.287 59.4652 233.631 66.585 233.848 72.6518C234.065 78.7187 234.174 84.0334 234.174 88.5961V118.228H212.564Z" fill="black"/>
<path d="M308.232 118.228H285.591V2.10585H308.232V118.228Z" fill="black"/>
<path d="M322.238 118.228V2.10585H343.848L355.196 42.8691C355.812 45.2758 356.499 48.0334 357.26 51.1421C358.056 54.2507 358.925 57.8357 359.866 61.8969L362.201 72.1254C361.368 62.0474 360.735 53.4234 360.3 46.2535C359.866 39.0836 359.649 33.0669 359.649 28.2033V2.10585H381.259V118.228H359.649L348.246 75.5098C347.052 70.9471 345.966 66.6852 344.989 62.7242C344.048 58.7131 343.215 54.9025 342.491 51.2925C342.962 59.4652 343.305 66.585 343.523 72.6518C343.74 78.7187 343.848 84.0334 343.848 88.5961V118.228H322.238Z" fill="black"/>
<path d="M425.4 51.0669H457V55.8802C457 78.2423 454.593 94.3371 449.779 104.164C444.53 114.894 436.766 120.259 426.485 120.259C416.386 120.259 408.459 114.994 402.704 104.465C396.984 93.8357 394.125 79.2451 394.125 60.6936C394.125 41.8914 397.002 27.0752 402.758 16.2451C408.513 5.41504 416.386 0 426.377 0C439.625 0 449.236 9.5766 455.208 28.7298L433.272 39.8607C432.947 36.2006 432.187 33.3176 430.992 31.2117C429.834 29.0557 428.368 27.9777 426.594 27.9777C420.368 27.9777 417.255 39.8357 417.255 63.5515C417.255 73.6295 417.943 80.9499 419.318 85.5125C420.694 90.0752 422.884 92.3566 425.888 92.3566C427.083 92.3566 428.169 91.9554 429.146 91.1532C430.123 90.351 430.938 89.2229 431.589 87.7688C432.277 86.3148 432.802 84.5599 433.164 82.5042C433.562 80.3983 433.761 78.0669 433.761 75.5098H425.4V51.0669Z" fill="black"/>
</g>
</svg>
