<svg width="573" height="399" viewBox="0 0 573 399" fill="none" xmlns="http://www.w3.org/2000/svg">
<path d="M85.0737 118.49H61.1913L55.488 77.7119C54.3791 69.8227 53.5473 62.9886 52.9928 57.2099C52.7156 54.3456 52.478 51.9587 52.2799 50.0492C52.0819 48.1397 51.9433 46.6824 51.8641 45.6774C51.666 47.7377 51.369 51.5818 50.9729 57.2099C50.7749 60.0741 50.5373 63.0891 50.26 66.2549C49.9828 69.4207 49.6461 72.7623 49.2501 76.2798L44.5568 118.49H20.4367L0 2.11051H24.4765L28.5163 34.145C30.061 46.9086 31.1303 56.9335 31.7244 64.2198L32.5561 74.8477L33.3285 65.7273C34.1602 55.0742 35.2295 44.9488 36.5365 35.351L41.1705 2.11051H62.4983L66.6569 30.0747C68.6372 43.0896 70.3601 58.4912 71.8255 76.2798C72.2612 68.29 72.7364 61.2048 73.2513 55.024C73.7662 48.8432 74.3405 43.2403 74.9742 38.2153L79.4893 2.11051H103.669L85.0737 118.49Z" fill="white"/>
<path d="M104.061 118.49V2.11051H150.103V29.4717H128.834V46.4312H147.905V72.7372H128.834V90.5258H150.103V118.49H104.061Z" fill="white"/>
<path d="M198.022 118.49H154.654V2.11051H179.427V90.5258H198.022V118.49Z" fill="white"/>
<path d="M242.674 118.49H199.305V2.11051H224.079V90.5258H242.674V118.49Z" fill="white"/>
<path d="M243.957 118.49V2.11051H267.602L280.018 42.9639C280.692 45.3759 281.444 48.1397 282.276 51.2552C283.147 54.3707 284.098 57.9636 285.128 62.0339L287.682 72.2849C286.771 62.1846 286.078 53.5416 285.603 46.3558C285.128 39.17 284.89 33.14 284.89 28.2657V2.11051H308.535V118.49H284.89L272.414 75.6768C271.107 71.104 269.919 66.8328 268.85 62.863C267.82 58.843 266.909 55.024 266.117 51.406C266.632 59.5967 267.008 66.7323 267.246 72.8126C267.483 78.8928 267.602 84.2194 267.602 88.7921V118.49H243.957Z" fill="white"/>
<path d="M315.343 118.49V2.11051H361.385V29.4717H340.117V46.4312H359.187V72.7372H340.117V90.5258H361.385V118.49H315.343Z" fill="white"/>
<path d="M363.975 115.626V79.0687C368.847 87.5107 374.114 91.7318 379.778 91.7318C381.917 91.7318 383.659 91.0283 385.006 89.6212C386.353 88.164 387.026 86.355 387.026 84.1942C387.026 81.0787 385.561 78.0386 382.63 75.0738L378.59 71.0789C375.897 68.5162 373.6 65.9785 371.698 63.466C369.797 60.9033 368.253 58.2902 367.065 55.627C365.876 52.9135 365.005 50.1246 364.451 47.2603C363.896 44.3961 363.619 41.381 363.619 38.2153C363.619 32.7883 364.609 27.11 366.589 21.1805C367.579 18.4167 368.728 15.9042 370.035 13.6429C371.342 11.3314 372.847 9.29629 374.55 7.53753C379.224 2.51251 384.867 0 391.482 0C397.383 0 403.324 1.98488 409.304 5.95465V41.5318C407.284 37.562 404.987 34.4465 402.413 32.1853C399.839 29.8737 397.304 28.718 394.809 28.718C392.907 28.718 391.343 29.4215 390.115 30.8285C388.848 32.1853 388.214 33.8184 388.214 35.7279C388.214 38.8434 389.897 41.9338 393.264 44.9991L397.185 48.6925C402.413 53.4662 406.156 58.3656 408.413 63.3906C410.71 68.4157 411.859 74.2949 411.859 81.0285C411.859 92.4855 409.106 101.933 403.601 109.37C398.096 116.807 391.125 120.525 382.689 120.525C376.867 120.525 370.629 118.892 363.975 115.626Z" fill="white"/>
<path d="M413.499 115.626V79.0687C418.37 87.5107 423.638 91.7318 429.301 91.7318C431.44 91.7318 433.183 91.0283 434.529 89.6212C435.876 88.164 436.549 86.355 436.549 84.1942C436.549 81.0787 435.084 78.0386 432.153 75.0738L428.113 71.0789C425.42 68.5162 423.123 65.9785 421.222 63.466C419.321 60.9033 417.776 58.2902 416.588 55.627C415.4 52.9135 414.528 50.1246 413.974 47.2603C413.419 44.3961 413.142 41.381 413.142 38.2153C413.142 32.7883 414.132 27.11 416.113 21.1805C417.103 18.4167 418.251 15.9042 419.558 13.6429C420.865 11.3314 422.37 9.29629 424.073 7.53753C428.747 2.51251 434.391 0 441.005 0C446.906 0 452.847 1.98488 458.828 5.95465V41.5318C456.808 37.562 454.511 34.4465 451.936 32.1853C449.362 29.8737 446.827 28.718 444.332 28.718C442.431 28.718 440.866 29.4215 439.639 30.8285C438.371 32.1853 437.738 33.8184 437.738 35.7279C437.738 38.8434 439.421 41.9338 442.787 44.9991L446.708 48.6925C451.936 53.4662 455.679 58.3656 457.937 63.3906C460.234 68.4157 461.382 74.2949 461.382 81.0285C461.382 92.4855 458.63 101.933 453.124 109.37C447.619 116.807 440.649 120.525 432.213 120.525C426.39 120.525 420.152 118.892 413.499 115.626Z" fill="white"/>
<path d="M520.269 118.49H495.495V2.11051H520.269V118.49Z" fill="white"/>
<path d="M525.116 115.626V79.0687C529.988 87.5107 535.255 91.7318 540.919 91.7318C543.058 91.7318 544.8 91.0283 546.147 89.6212C547.494 88.164 548.167 86.355 548.167 84.1942C548.167 81.0787 546.702 78.0386 543.771 75.0738L539.731 71.0789C537.038 68.5162 534.741 65.9785 532.839 63.466C530.938 60.9033 529.394 58.2902 528.206 55.627C527.017 52.9135 526.146 50.1246 525.592 47.2603C525.037 44.3961 524.76 41.381 524.76 38.2153C524.76 32.7883 525.75 27.11 527.73 21.1805C528.72 18.4167 529.869 15.9042 531.176 13.6429C532.483 11.3314 533.988 9.29629 535.691 7.53753C540.365 2.51251 546.008 0 552.623 0C558.524 0 564.465 1.98488 570.445 5.95465V41.5318C568.425 37.562 566.128 34.4465 563.554 32.1853C560.98 29.8737 558.445 28.718 555.95 28.718C554.048 28.718 552.484 29.4215 551.256 30.8285C549.989 32.1853 549.355 33.8184 549.355 35.7279C549.355 38.8434 551.038 41.9338 554.405 44.9991L558.326 48.6925C563.554 53.4662 567.297 58.3656 569.554 63.3906C571.851 68.4157 573 74.2949 573 81.0285C573 92.4855 570.247 101.933 564.742 109.37C559.237 116.807 552.266 120.525 543.83 120.525C538.008 120.525 531.77 118.892 525.116 115.626Z" fill="white"/>
<path d="M38.4376 257.689H13.6641V169.199H0V141.31H52.6364V169.199H38.4376V257.689Z" fill="white"/>
<path d="M114.339 257.689H89.565V210.881H77.7426V257.689H52.9691V141.31H77.7426V182.465H89.565V141.31H114.339V257.689Z" fill="white"/>
<path d="M121.147 257.689V141.31H167.189V168.671H145.92V185.631H164.991V211.937H145.92V229.725H167.189V257.689H121.147Z" fill="white"/>
<path d="M202.252 257.689V141.31H225.897L238.313 182.163C238.987 184.575 239.739 187.339 240.571 190.455C241.442 193.57 242.393 197.163 243.423 201.233L245.977 211.484C245.066 201.384 244.373 192.741 243.898 185.555C243.423 178.37 243.185 172.339 243.185 167.465V141.31H266.83V257.689H243.185L230.709 214.876C229.402 210.304 228.214 206.032 227.144 202.062C226.115 198.042 225.204 194.223 224.412 190.605C224.926 198.796 225.303 205.932 225.54 212.012C225.778 218.092 225.897 223.419 225.897 227.992V257.689H202.252Z" fill="white"/>
<path d="M273.638 257.689V141.31H319.68V168.671H298.411V185.631H317.482V211.937H298.411V229.725H319.68V257.689H273.638Z" fill="white"/>
<path d="M402.888 257.689H379.006L373.302 216.911C372.194 209.022 371.362 202.188 370.807 196.409C370.53 193.545 370.292 191.158 370.094 189.249C369.896 187.339 369.758 185.882 369.679 184.877C369.481 186.937 369.183 190.781 368.787 196.409C368.589 199.274 368.352 202.289 368.074 205.454C367.797 208.62 367.461 211.962 367.065 215.479L362.371 257.689H338.251L317.814 141.31H342.291L346.331 173.344C347.875 186.108 348.945 196.133 349.539 203.419L350.371 214.047L351.143 204.927C351.975 194.274 353.044 184.148 354.351 174.55L358.985 141.31H380.313L384.471 169.274C386.452 182.289 388.175 197.691 389.64 215.479C390.076 207.489 390.551 200.404 391.066 194.223C391.581 188.043 392.155 182.44 392.789 177.415L397.304 141.31H421.483L402.888 257.689Z" fill="white"/>
<path d="M49.7848 396.889H6.41617V280.509H31.1897V368.925H49.7848V396.889Z" fill="white"/>
<path d="M75.8416 396.889H51.068V280.509H75.8416V396.889Z" fill="white"/>
<path d="M107.423 396.889H82.6498V280.509H126.434V307.871H107.423V324.83H125.127V351.136H107.423V396.889Z" fill="white"/>
<path d="M130.034 396.889V280.509H176.076V307.871H154.808V324.83H173.878V351.136H154.808V368.925H176.076V396.889H130.034Z" fill="white"/>
<path d="M178.667 394.025V357.468C183.538 365.91 188.806 370.131 194.469 370.131C196.608 370.131 198.351 369.427 199.697 368.02C201.044 366.563 201.717 364.754 201.717 362.593C201.717 359.478 200.252 356.437 197.321 353.473L193.281 349.478C190.588 346.915 188.291 344.377 186.39 341.865C184.489 339.302 182.944 336.689 181.756 334.026C180.568 331.312 179.696 328.524 179.142 325.659C178.587 322.795 178.31 319.78 178.31 316.614C178.31 311.187 179.3 305.509 181.281 299.579C182.271 296.816 183.419 294.303 184.726 292.042C186.033 289.73 187.538 287.695 189.241 285.936C193.915 280.911 199.559 278.399 206.173 278.399C212.074 278.399 218.015 280.384 223.996 284.354V319.931C221.976 315.961 219.679 312.845 217.104 310.584C214.53 308.273 211.995 307.117 209.5 307.117C207.599 307.117 206.034 307.82 204.807 309.227C203.539 310.584 202.906 312.217 202.906 314.127C202.906 317.242 204.589 320.333 207.955 323.398L211.876 327.091C217.104 331.865 220.847 336.765 223.105 341.79C225.402 346.815 226.55 352.694 226.55 359.427C226.55 370.884 223.798 380.331 218.293 387.769C212.787 395.206 205.817 398.924 197.381 398.924C191.558 398.924 185.32 397.291 178.667 394.025Z" fill="white"/>
<path d="M263.36 396.889H238.587V308.398H224.923V280.509H277.559V308.398H263.36V396.889Z" fill="white"/>
<path d="M323.161 396.889H298.388V347.593L275.634 280.509H301.477L305.933 297.77C306.804 301.137 307.576 304.378 308.25 307.494C308.963 310.609 309.596 313.599 310.151 316.463C311.062 312.192 311.854 308.524 312.527 305.459C313.2 302.343 313.794 299.831 314.309 297.921L318.824 280.509H344.489L323.161 347.593V396.889Z" fill="white"/>
<path d="M388.25 396.889H344.881V280.509H369.655V368.925H388.25V396.889Z" fill="white"/>
<path d="M389.533 396.889V280.509H435.575V307.871H414.307V324.83H433.377V351.136H414.307V368.925H435.575V396.889H389.533Z" fill="white"/>
</svg>
