<svg width="269" height="148" viewBox="0 0 269 148" fill="none" xmlns="http://www.w3.org/2000/svg">
<path d="M39.9386 43.9595H28.7268L26.0494 28.831C25.5287 25.9041 25.1383 23.3687 24.878 21.2247C24.7478 20.1621 24.6363 19.2766 24.5433 18.5682C24.4503 17.8597 24.3852 17.3191 24.3481 16.9462C24.2551 17.7106 24.1156 19.1368 23.9297 21.2247C23.8367 22.2874 23.7252 23.4059 23.595 24.5804C23.4649 25.7549 23.3068 26.9947 23.1209 28.2997L20.9176 43.9595H9.59419L0 0.782994H11.4907L13.3872 12.6677C14.1124 17.403 14.6144 21.1222 14.8933 23.8254L15.2838 27.7683L15.6463 24.3847C16.0368 20.4324 16.5388 16.6759 17.1524 13.1152L19.3278 0.782994H29.3404L31.2927 11.1577C32.2224 15.9861 33.0312 21.7001 33.7191 28.2997C33.9237 25.3355 34.1468 22.7068 34.3885 20.4138C34.6302 18.1207 34.8998 16.0421 35.1973 14.1778L37.317 0.782994H48.6682L39.9386 43.9595Z" fill="white"/>
<path d="M48.8523 43.9595V0.782994H70.4671V10.934H60.4825V17.2259H69.4352V26.9853H60.4825V33.5849H70.4671V43.9595H48.8523Z" fill="white"/>
<path d="M92.9633 43.9595H72.6035V0.782994H84.2337V33.5849H92.9633V43.9595Z" fill="white"/>
<path d="M113.925 43.9595H93.5657V0.782994H105.196V33.5849H113.925V43.9595Z" fill="white"/>
<path d="M114.528 43.9595V0.782994H125.628L131.457 15.9395C131.773 16.8344 132.127 17.8597 132.517 19.0156C132.926 20.1714 133.372 21.5044 133.856 23.0144L135.055 26.8176C134.627 23.0704 134.302 19.8638 134.079 17.1979C133.856 14.532 133.744 12.2949 133.744 10.4865V0.782994H144.844V43.9595H133.744L127.887 28.0759C127.274 26.3795 126.716 24.7948 126.214 23.322C125.73 21.8306 125.303 20.4138 124.931 19.0715C125.173 22.1103 125.349 24.7575 125.461 27.0133C125.572 29.2691 125.628 31.2452 125.628 32.9417V43.9595H114.528Z" fill="white"/>
<path d="M148.041 43.9595V0.782994H169.655V10.934H159.671V17.2259H168.624V26.9853H159.671V33.5849H169.655V43.9595H148.041Z" fill="white"/>
<path d="M170.871 42.8969V29.3343C173.158 32.4663 175.631 34.0323 178.29 34.0323C179.294 34.0323 180.112 33.7713 180.745 33.2493C181.377 32.7087 181.693 32.0375 181.693 31.2359C181.693 30.08 181.005 28.9521 179.629 27.8522L177.732 26.3701C176.468 25.4194 175.39 24.4779 174.497 23.5458C173.605 22.595 172.88 21.6256 172.322 20.6375C171.764 19.6308 171.355 18.5961 171.095 17.5335C170.834 16.4708 170.704 15.3523 170.704 14.1778C170.704 12.1644 171.169 10.0577 172.099 7.85791C172.563 6.83256 173.103 5.90042 173.716 5.0615C174.33 4.20393 175.036 3.4489 175.836 2.79641C178.03 0.932136 180.679 0 183.785 0C186.555 0 189.344 0.736388 192.152 2.20916V15.4082C191.203 13.9354 190.125 12.7796 188.916 11.9407C187.708 11.0831 186.518 10.6543 185.346 10.6543C184.454 10.6543 183.72 10.9153 183.143 11.4373C182.548 11.9407 182.251 12.5466 182.251 13.255C182.251 14.4108 183.041 15.5574 184.621 16.6946L186.462 18.0648C188.916 19.8359 190.673 21.6535 191.733 23.5178C192.812 25.3821 193.351 27.5633 193.351 30.0614C193.351 34.3119 192.059 37.8168 189.474 40.5759C186.89 43.335 183.617 44.7146 179.657 44.7146C176.924 44.7146 173.995 44.1087 170.871 42.8969Z" fill="white"/>
<path d="M194.121 42.8969V29.3343C196.408 32.4663 198.881 34.0323 201.539 34.0323C202.543 34.0323 203.362 33.7713 203.994 33.2493C204.626 32.7087 204.942 32.0375 204.942 31.2359C204.942 30.08 204.254 28.9521 202.878 27.8522L200.982 26.3701C199.717 25.4194 198.639 24.4779 197.746 23.5458C196.854 22.595 196.129 21.6256 195.571 20.6375C195.013 19.6308 194.604 18.5961 194.344 17.5335C194.083 16.4708 193.953 15.3523 193.953 14.1778C193.953 12.1644 194.418 10.0577 195.348 7.85791C195.813 6.83256 196.352 5.90042 196.965 5.0615C197.579 4.20393 198.286 3.4489 199.085 2.79641C201.279 0.932136 203.929 0 207.034 0C209.804 0 212.593 0.736388 215.401 2.20916V15.4082C214.453 13.9354 213.374 12.7796 212.166 11.9407C210.957 11.0831 209.767 10.6543 208.596 10.6543C207.703 10.6543 206.969 10.9153 206.392 11.4373C205.797 11.9407 205.5 12.5466 205.5 13.255C205.5 14.4108 206.29 15.5574 207.87 16.6946L209.711 18.0648C212.166 19.8359 213.923 21.6535 214.982 23.5178C216.061 25.3821 216.6 27.5633 216.6 30.0614C216.6 34.3119 215.308 37.8168 212.723 40.5759C210.139 43.335 206.866 44.7146 202.906 44.7146C200.173 44.7146 197.244 44.1087 194.121 42.8969Z" fill="white"/>
<path d="M244.245 43.9595H232.615V0.782994H244.245V43.9595Z" fill="white"/>
<path d="M246.521 42.8969V29.3343C248.808 32.4663 251.28 34.0323 253.939 34.0323C254.943 34.0323 255.761 33.7713 256.394 33.2493C257.026 32.7087 257.342 32.0375 257.342 31.2359C257.342 30.08 256.654 28.9521 255.278 27.8522L253.382 26.3701C252.117 25.4194 251.039 24.4779 250.146 23.5458C249.254 22.595 248.529 21.6256 247.971 20.6375C247.413 19.6308 247.004 18.5961 246.744 17.5335C246.483 16.4708 246.353 15.3523 246.353 14.1778C246.353 12.1644 246.818 10.0577 247.748 7.85791C248.213 6.83256 248.752 5.90042 249.365 5.0615C249.979 4.20393 250.686 3.4489 251.485 2.79641C253.679 0.932136 256.329 0 259.434 0C262.204 0 264.993 0.736388 267.801 2.20916V15.4082C266.852 13.9354 265.774 12.7796 264.565 11.9407C263.357 11.0831 262.167 10.6543 260.996 10.6543C260.103 10.6543 259.369 10.9153 258.792 11.4373C258.197 11.9407 257.9 12.5466 257.9 13.255C257.9 14.4108 258.69 15.5574 260.27 16.6946L262.111 18.0648C264.565 19.8359 266.323 21.6535 267.382 23.5178C268.461 25.3821 269 27.5633 269 30.0614C269 34.3119 267.708 37.8168 265.123 40.5759C262.539 43.335 259.266 44.7146 255.306 44.7146C252.573 44.7146 249.644 44.1087 246.521 42.8969Z" fill="white"/>
<path d="M18.0449 95.6023H6.41472V62.7724H0V52.4257H24.7106V62.7724H18.0449V95.6023Z" fill="white"/>
<path d="M53.6773 95.6023H42.0471V78.2366H36.497V95.6023H24.8668V52.4257H36.497V67.6941H42.0471V52.4257H53.6773V95.6023Z" fill="white"/>
<path d="M56.8735 95.6023V52.4257H78.4883V62.5767H68.5037V68.8686H77.4564V78.6281H68.5037V85.2276H78.4883V95.6023H56.8735Z" fill="white"/>
<path d="M94.9491 95.6023V52.4257H106.049L111.878 67.5822C112.194 68.4771 112.548 69.5024 112.938 70.6583C113.347 71.8141 113.793 73.1471 114.277 74.6572L115.476 78.4603C115.049 74.7131 114.723 71.5065 114.5 68.8406C114.277 66.1747 114.165 63.9376 114.165 62.1292V52.4257H125.266V95.6023H114.165L108.308 79.7187C107.695 78.0222 107.137 76.4375 106.635 74.9648C106.152 73.4733 105.724 72.0565 105.352 70.7142C105.594 73.753 105.77 76.4003 105.882 78.656C105.994 80.9118 106.049 82.8879 106.049 84.5844V95.6023H94.9491Z" fill="white"/>
<path d="M128.462 95.6023V52.4257H150.077V62.5767H140.092V68.8686H149.045V78.6281H140.092V85.2276H150.077V95.6023H128.462Z" fill="white"/>
<path d="M189.139 95.6023H177.928L175.25 80.4737C174.73 77.5468 174.339 75.0114 174.079 72.8675C173.949 71.8048 173.837 70.9193 173.744 70.2109C173.651 69.5024 173.586 68.9618 173.549 68.589C173.456 69.3533 173.316 70.7795 173.131 72.8675C173.038 73.9301 172.926 75.0487 172.796 76.2231C172.666 77.3976 172.508 78.6374 172.322 79.9424L170.118 95.6023H158.795L149.201 52.4257H160.692L162.588 64.3104C163.313 69.0457 163.815 72.7649 164.094 75.4681L164.485 79.411L164.847 76.0274C165.238 72.0751 165.74 68.3186 166.353 64.7579L168.529 52.4257H178.541L180.494 62.8004C181.423 67.6288 182.232 73.3428 182.92 79.9424C183.125 76.9782 183.348 74.3495 183.589 72.0565C183.831 69.7634 184.101 67.6848 184.398 65.8205L186.518 52.4257H197.869L189.139 95.6023Z" fill="white"/>
<path d="M23.3719 147.245H3.01213V104.068H14.6423V136.87H23.3719V147.245Z" fill="white"/>
<path d="M35.6045 147.245H23.9743V104.068H35.6045V147.245Z" fill="white"/>
<path d="M50.4309 147.245H38.8007V104.068H59.3557V114.219H50.4309V120.511H58.7421V130.271H50.4309V147.245Z" fill="white"/>
<path d="M61.0458 147.245V104.068H82.6607V114.219H72.676V120.511H81.6287V130.271H72.676V136.87H82.6607V147.245H61.0458Z" fill="white"/>
<path d="M83.8767 146.182V132.62C86.1637 135.752 88.6366 137.318 91.2954 137.318C92.2995 137.318 93.1176 137.057 93.7498 136.535C94.382 135.994 94.698 135.323 94.698 134.521C94.698 133.365 94.0101 132.238 92.6342 131.138L90.7376 129.656C89.4733 128.705 88.3949 127.763 87.5024 126.831C86.6099 125.88 85.8848 124.911 85.327 123.923C84.7692 122.916 84.3601 121.882 84.0998 120.819C83.8395 119.756 83.7093 118.638 83.7093 117.463C83.7093 115.45 84.1742 113.343 85.1038 111.143C85.5687 110.118 86.1079 109.186 86.7215 108.347C87.3351 107.489 88.0416 106.734 88.8411 106.082C91.0351 104.218 93.6847 103.285 96.7898 103.285C99.5602 103.285 102.349 104.022 105.157 105.495V118.694C104.209 117.221 103.13 116.065 101.922 115.226C100.713 114.369 99.523 113.94 98.3516 113.94C97.4592 113.94 96.7247 114.201 96.1483 114.723C95.5533 115.226 95.2558 115.832 95.2558 116.54C95.2558 117.696 96.0461 118.843 97.6265 119.98L99.4672 121.35C101.922 123.121 103.679 124.939 104.738 126.803C105.817 128.667 106.356 130.849 106.356 133.347C106.356 137.597 105.064 141.102 102.479 143.861C99.8949 146.62 96.6225 148 92.6621 148C89.9288 148 87.0004 147.394 83.8767 146.182Z" fill="white"/>
<path d="M123.637 147.245H112.007V114.415H105.592V104.068H130.303V114.415H123.637V147.245Z" fill="white"/>
<path d="M151.711 147.245H140.081V128.956L129.399 104.068H141.531L143.623 110.472C144.032 111.721 144.394 112.924 144.711 114.08C145.045 115.235 145.343 116.345 145.603 117.407C146.031 115.823 146.403 114.462 146.719 113.325C147.035 112.169 147.314 111.237 147.555 110.528L149.675 104.068H161.724L151.711 128.956V147.245Z" fill="white"/>
<path d="M182.267 147.245H161.908V104.068H173.538V136.87H182.267V147.245Z" fill="white"/>
<path d="M182.87 147.245V104.068H204.485V114.219H194.5V120.511H203.453V130.271H194.5V136.87H204.485V147.245H182.87Z" fill="white"/>
</svg>
