<svg width="63" height="40" viewBox="0 0 63 40" fill="none" xmlns="http://www.w3.org/2000/svg">
<path d="M27.6295 39.5769H19.8732L18.0209 25.7096C17.6608 23.0267 17.3907 20.7027 17.2106 18.7375C17.1205 17.7635 17.0434 16.9518 16.979 16.3024C16.9147 15.653 16.8697 15.1575 16.844 14.8157C16.7797 15.5163 16.6832 16.8236 16.5546 18.7375C16.4902 19.7115 16.4131 20.7369 16.323 21.8134C16.233 22.89 16.1237 24.0264 15.995 25.2226L14.4708 39.5769H6.63726L0 0H7.94928L9.26129 10.8939C9.76295 15.2344 10.1102 18.6435 10.3032 21.1213L10.5733 24.7356L10.8241 21.634C11.0943 18.0112 11.4416 14.5679 11.866 11.304L13.371 0H20.2977L21.6483 9.50973C22.2914 13.9356 22.851 19.1733 23.3269 25.2226C23.4684 22.5055 23.6227 20.096 23.7899 17.9942C23.9572 15.8923 24.1437 13.9869 24.3495 12.2781L25.8159 0H33.6687L27.6295 39.5769Z" fill="#25E09E"/>
<path d="M44.1957 39.5769H36.1499V9.4841H31.7122V0H48.807V9.4841H44.1957V39.5769Z" fill="#25E09E"/>
<path d="M63 39.5769H48.9151V0H56.9608V30.0672H63V39.5769Z" fill="#25E09E"/>
</svg>
