<svg width="221" height="159" viewBox="0 0 221 159" fill="none" xmlns="http://www.w3.org/2000/svg">
<g opacity="0.99" filter="url(#filter0_d_5_8)">
<path d="M22.5702 10.8685H29.6513V0.0796243H33.7487V26.5543H29.6513V14.2525H22.5702V10.8685ZM6.29964 2.82662H22.7691C22.7691 12.3017 16.4439 19.3484 6.22008 22.6925L4.42992 19.428C12.3464 16.8403 17.5975 12.0629 18.3534 6.17078H6.29964V2.82662ZM14.8128 32.0084H34.6637V35.3526H10.7154V23.8869H14.8128V32.0084Z" fill="#2CFFB5"/>
<path d="M40.0709 2.58775H56.8586C56.8586 11.9833 50.6527 18.6716 40.1504 21.6973L38.4796 18.4327C46.7939 16.044 51.687 11.5055 52.4031 5.93191H40.0709V2.58775ZM55.1878 32.8047C60.0013 32.8047 62.9849 31.3714 62.9849 28.9031C62.9849 26.395 60.0013 24.9618 55.1878 24.9618C50.414 24.9618 47.3906 26.395 47.3906 28.9031C47.3906 31.3714 50.414 32.8047 55.1878 32.8047ZM55.1878 21.6973C62.3882 21.6973 67.0426 24.4442 67.0426 28.9031C67.0426 33.3222 62.3882 36.0294 55.1878 36.0294C48.0271 36.0294 43.3329 33.3222 43.3329 28.9031C43.3329 24.4442 48.0271 21.6973 55.1878 21.6973ZM66.6448 8.95758H71.7368V12.3416H66.6448V21.2195H62.5473V0.0796243H66.6448V8.95758Z" fill="#2CFFB5"/>
<path d="M102.468 15.4867L98.4505 15.0487C99.1666 11.187 99.2859 8.36041 99.3257 6.13097H85.2829V2.7868H103.344V4.857C103.344 7.2855 103.344 10.8287 102.468 15.4867ZM105.452 17.2782L105.731 20.264C98.2516 21.5778 89.7782 21.7769 83.5325 21.7769L83.095 18.4327C85.2431 18.4327 87.7096 18.4327 90.2556 18.3531V10.988H94.3133V18.2337C98.0527 18.0744 101.912 17.8355 105.452 17.2782ZM92.6425 24.6831V32.0084H112.931V35.3526H88.5052V24.6831H92.6425ZM111.777 11.4657H116.551V14.8497H111.777V27.0718H107.64V0.0796243H111.777V11.4657Z" fill="#2CFFB5"/>
<path d="M124.265 16.6014V24.1656C129.954 24.1257 134.927 23.8471 140.616 22.9314L141.053 26.2756C134.887 27.3505 129.517 27.5495 123.191 27.5495H120.128V13.297H132.659V6.6087H120.049V3.26454H136.797V16.6014H124.265ZM143.599 0H147.736V36.109H143.599V0Z" fill="#2CFFB5"/>
<path d="M160.782 24.5239C163.248 24.5239 164.76 21.2991 164.76 15.6061C164.76 9.91306 163.248 6.72814 160.782 6.72814C158.315 6.72814 156.803 9.91306 156.803 15.6061C156.803 21.2991 158.315 24.5239 160.782 24.5239ZM172.278 13.6951V0.75642H176.097V34.3175H172.278V17.0791H168.459C168.101 24.0859 165.158 28.3856 160.782 28.3856C156.127 28.3856 153.064 23.4888 153.064 15.6061C153.064 7.72343 156.127 2.86643 160.782 2.86643C165.078 2.86643 167.982 6.96701 168.42 13.6951H172.278ZM179.479 0.0796243H183.377V35.9896H179.479V0.0796243Z" fill="#2CFFB5"/>
<path d="M200.321 2.98586V8.91777C200.321 15.6061 203.742 22.1352 209.232 24.6831L206.805 27.9875C202.748 25.9571 199.844 22.0157 198.292 17.1986C196.701 22.2944 193.757 26.4746 189.66 28.5846L187.074 25.3201C192.683 22.5731 196.184 15.6459 196.184 8.91777V2.98586H200.321ZM213.011 0H217.149V36.0692H213.011V15.1682H205.334V11.824H213.011V0Z" fill="#2CFFB5"/>
<path d="M9.48214 74.4922V82.0166C15.3698 81.9768 19.8651 81.7379 24.9173 80.8223L25.3549 84.1664C19.8253 85.1617 15.0117 85.4006 8.36827 85.4006H5.42445V71.1879H17.7169V64.4597H5.34489V61.1156H21.7746V74.4922H9.48214ZM37.4086 71.9045V75.3283H31.879V93.9202H27.7418V57.851H31.879V71.9045H37.4086Z" fill="#2CFFB5"/>
<path d="M64.0192 57.8909H68.1565V93.96H64.0192V57.8909ZM49.0216 60.5582C54.3921 60.5582 58.2907 65.4948 58.2907 73.2183C58.2907 81.0213 54.3921 85.9181 49.0216 85.9181C43.6909 85.9181 39.7924 81.0213 39.7924 73.2183C39.7924 65.4948 43.6909 60.5582 49.0216 60.5582ZM49.0216 64.2607C45.9187 64.2607 43.7307 67.6447 43.7307 73.2183C43.7307 78.8715 45.9187 82.2555 49.0216 82.2555C52.1644 82.2555 54.3523 78.8715 54.3523 73.2183C54.3523 67.6447 52.1644 64.2607 49.0216 64.2607Z" fill="#2CFFB5"/>
<path d="M93.5338 76.3634V64.619H85.2593V76.3634H93.5338ZM81.1618 76.3634V64.619H75.8709V61.3146H102.882V64.619H97.5915V76.3634H102.803V79.7075H75.9903V76.3634H81.1618ZM73.1658 86.0774H105.786V89.4613H73.1658V86.0774Z" fill="#2CFFB5"/>
<path d="M138.961 75.4875L137.171 78.8715C131.323 77.6772 126.271 73.9349 123.924 68.9982C121.577 73.9349 116.524 77.6772 110.676 78.8715L108.926 75.4875C116.007 74.1737 121.775 68.6399 121.775 62.9469V60.2397H126.112V62.9469C126.112 68.6798 131.88 74.2136 138.961 75.4875ZM107.812 85.8783H140.353V89.2623H107.812V85.8783Z" fill="#2CFFB5"/>
<path d="M147.988 74.4126V82.136C153.717 82.0962 158.093 81.8972 163.145 81.0611L163.543 84.4053C158.013 85.2811 153.239 85.4802 146.795 85.4802H143.891V61.036H160.678V64.4199H147.988V71.1083H160.002V74.4126H147.988ZM175.835 72.0239V75.4079H170.226V93.9202H166.128V57.8909H170.226V72.0239H175.835Z" fill="#2CFFB5"/>
<path d="M206.623 57.8909V76.1643H202.525V57.8909H206.623ZM181.68 67.2067C181.68 70.0732 183.987 71.9443 187.09 71.9443C190.233 71.9443 192.58 70.0732 192.58 67.2067C192.58 64.3403 190.233 62.4692 187.09 62.4692C183.987 62.4692 181.68 64.3403 181.68 67.2067ZM196.558 67.2067C196.558 71.9443 192.54 75.2885 187.09 75.2885C181.68 75.2885 177.702 71.9443 177.702 67.2067C177.702 62.4692 181.68 59.0852 187.09 59.0852C192.54 59.0852 196.558 62.4692 196.558 67.2067ZM187.17 90.2178H207.697V93.4425H183.152V84.0072H202.565V81.0213H183.072V77.7966H206.623V87.0328H187.17V90.2178Z" fill="#2CFFB5"/>
<path d="M25.156 133.378L23.0873 136.643C19.1092 135.249 16.2052 132.383 14.6139 128.88C13.0625 132.821 10.0789 135.886 5.86205 137.399L3.63429 134.214C9.40258 132.264 12.4657 127.407 12.4657 122.152V117.971H16.603V122.191C16.603 126.969 19.7059 131.507 25.156 133.378ZM13.4603 139.708V147.711H33.4703V151.055H9.3628V139.708H13.4603ZM32.0381 126.531H37.1301V129.915H32.0381V142.256H27.9407V115.742H32.0381V126.531Z" fill="#2CFFB5"/>
<path d="M64.2977 147.989V144.008H49.0614V147.989H64.2977ZM64.2977 140.823V136.762H68.3554V151.294H45.0037V136.762H49.0614V140.823H64.2977ZM48.4647 130.83C51.5677 130.83 53.875 128.8 53.875 125.774C53.875 122.709 51.5677 120.758 48.4647 120.758C45.2822 120.758 43.0147 122.709 43.0147 125.774C43.0147 128.8 45.2822 130.83 48.4647 130.83ZM64.2579 115.782H68.3554V135.05H64.2579V127.407H57.6144C56.8983 131.467 53.2385 134.214 48.4647 134.214C43.0545 134.214 39.0763 130.751 39.0763 125.774C39.0763 120.838 43.0545 117.374 48.4647 117.374C53.1987 117.374 56.8188 120.042 57.6144 124.062H64.2579V115.782Z" fill="#2CFFB5"/>
<path d="M74.1603 119.564H83.867C83.867 128.8 82.4348 136.882 76.03 143.849L72.768 141.58C77.8998 136.125 79.6501 130.154 80.0082 122.948H74.1603V119.564ZM85.1002 119.564H93.7327C93.7327 128.999 92.6586 138.395 86.2538 146.237L82.952 143.928C88.1236 137.718 89.5955 130.711 89.8739 122.948H85.1002V119.564ZM106.622 130.273V133.657H101.57V151.692H97.4722V115.782H101.57V130.273H106.622Z" fill="#2CFFB5"/>
<path d="M121.059 122.749V126.172C121.059 132.144 124.759 138.355 130.368 140.743L128.101 143.968C123.924 142.137 120.701 138.235 119.031 133.577C117.439 138.594 114.217 142.854 110 144.884L107.653 141.619C113.222 139.032 116.922 132.343 116.922 126.172V122.749H108.926V119.365H129.055V122.749H121.059ZM133.232 115.782H137.37V151.731H133.232V115.782Z" fill="#2CFFB5"/>
</g>
<defs>
<filter id="filter0_d_5_8" x="6.22011e-06" y="0" width="220.783" height="159" filterUnits="userSpaceOnUse" color-interpolation-filters="sRGB">
<feFlood flood-opacity="0" result="BackgroundImageFix"/>
<feColorMatrix in="SourceAlpha" type="matrix" values="0 0 0 0 0 0 0 0 0 0 0 0 0 0 0 0 0 0 127 0" result="hardAlpha"/>
<feOffset dy="3.62188"/>
<feGaussianBlur stdDeviation="1.81094"/>
<feComposite in2="hardAlpha" operator="out"/>
<feColorMatrix type="matrix" values="0 0 0 0 0 0 0 0 0 0 0 0 0 0 0 0 0 0 1 0"/>
<feBlend mode="normal" in2="BackgroundImageFix" result="effect1_dropShadow_5_8"/>
<feBlend mode="normal" in="SourceGraphic" in2="effect1_dropShadow_5_8" result="shape"/>
</filter>
</defs>
</svg>
